<?xml version="1.0" encoding="UTF-8" standalone="no"?>
<svg width="707px" height="200px" viewBox="0 0 707 200" version="1.1" xmlns="http://www.w3.org/2000/svg" xmlns:xlink="http://www.w3.org/1999/xlink" xmlns:sketch="http://www.bohemiancoding.com/sketch/ns">
    <!-- Generator: Sketch 3.4.4 (17249) - http://www.bohemiancoding.com/sketch -->
    <title>logo + text</title>
    <desc>Created with Sketch.</desc>
    <defs></defs>
    <g id="Page-1" stroke="none" stroke-width="1" fill="none" fill-rule="evenodd" sketch:type="MSPage">
        <g id="logo-+-text" sketch:type="MSLayerGroup">
            <g id="logo" sketch:type="MSShapeGroup">
                <g>
                    <rect id="Rectangle-1" fill="#EB2F24" x="44.4444444" y="164.705882" width="111.111111" height="23.5294118"></rect>
                    <rect id="Rectangle-1" fill="#EB2F24" x="44.4444444" y="76.4705882" width="111.111111" height="41.1764706"></rect>
                    <rect id="Rectangle-1" fill="#EB2F24" x="33.3333333" y="11.7647059" width="133.333333" height="23.5294118"></rect>
                    <path d="M158.153498,200 L41.3932405,200 C28.1540159,200 15.1206204,196.608894 3.69710286,190.187055 C0.175954279,188.20861 -1.04431851,183.804857 0.973542215,180.348885 C2.99507846,176.896515 7.49391548,175.700079 11.007713,177.678524 C20.2075407,182.84987 30.7158536,185.581494 41.3932405,185.581494 L158.157174,185.581494 C168.992608,185.581494 179.640591,182.770588 188.947009,177.451489 C192.460806,175.447818 196.955968,176.611821 198.999557,180.049775 C201.043146,183.491333 199.855953,187.902293 196.349507,189.905965 C184.797346,196.511594 171.591201,200 158.153498,200 L158.153498,200 Z" id="Shape" fill="#000000"></path>
                    <path d="M160.96835,199.996045 C156.947676,199.996045 153.620868,196.508863 153.478344,192.07809 C152.698213,167.799098 149.810229,58.0226068 159.411839,16.4061659 L40.5881612,16.4061659 C50.1897715,58.0226068 47.3017871,167.794995 46.5216563,192.07809 C46.3753818,196.607324 42.864793,200.192968 38.7653555,199.991942 C34.6246611,199.831942 31.3841176,196.032965 31.5303922,191.507833 C34.0508149,112.689314 31.8566969,24.4718129 23.8228496,13.2718046 C22.048802,10.8020592 21.7224973,7.44205676 22.978958,4.61538801 C24.2316681,1.79282183 26.8533578,-1.42108547e-14 29.722589,-1.42108547e-14 L170.277411,-1.42108547e-14 C173.150393,-1.42108547e-14 175.768332,1.79282183 177.021042,4.61538801 C178.277503,7.43795419 177.951198,10.8020592 176.17715,13.2718046 C168.139552,24.4759154 165.945435,112.693416 168.469608,191.507833 C168.615882,196.037067 165.375339,199.836044 161.234644,199.991942 C161.14838,199.996045 161.058365,199.996045 160.96835,199.996045 L160.96835,199.996045 Z" id="Shape" fill="#000000"></path>
                    <path d="M162.751546,164.705882 L37.2484535,164.705882 C35.0873072,164.705882 33.3333333,162.070588 33.3333333,158.823529 C33.3333333,155.576471 35.0873072,152.941176 37.2484535,152.941176 L162.751546,152.941176 C164.912693,152.941176 166.666667,155.576471 166.666667,158.823529 C166.666667,162.070588 164.916608,164.705882 162.751546,164.705882 L162.751546,164.705882 Z" id="Shape" fill="#000000"></path>
                    <path d="M152.425665,129.411765 L47.5743349,129.411765 C45.8466354,129.411765 44.4444444,126.776471 44.4444444,123.529412 C44.4444444,120.282353 45.8466354,117.647059 47.5743349,117.647059 L152.425665,117.647059 C154.153365,117.647059 155.555556,120.282353 155.555556,123.529412 C155.555556,126.776471 154.153365,129.411765 152.425665,129.411765 L152.425665,129.411765 Z" id="Shape" fill="#000000"></path>
                    <path d="M162.751546,82.3529412 L37.2484535,82.3529412 C35.0873072,82.3529412 33.3333333,79.7176471 33.3333333,76.4705882 C33.3333333,73.2235294 35.0873072,70.5882353 37.2484535,70.5882353 L162.751546,70.5882353 C164.912693,70.5882353 166.666667,73.2235294 166.666667,76.4705882 C166.666667,79.7176471 164.916608,82.3529412 162.751546,82.3529412 L162.751546,82.3529412 Z" id="Shape" fill="#000000"></path>
                    <path d="M162.73411,47.0588235 L37.26589,47.0588235 C35.0951187,47.0588235 33.3333333,44.4235294 33.3333333,41.1764706 C33.3333333,37.9294118 35.0951187,35.2941176 37.26589,35.2941176 L162.73411,35.2941176 C164.904881,35.2941176 166.666667,37.9294118 166.666667,41.1764706 C166.666667,44.4235294 164.904881,47.0588235 162.73411,47.0588235 L162.73411,47.0588235 Z" id="Shape" fill="#000000"></path>
                </g>
            </g>
            <g id="text" transform="translate(260.000000, 50.000000)" sketch:type="MSShapeGroup">
                <path d="M425.514368,1.68338718 L424.443122,41.0899507 C417.811564,39.3555431 412.378868,38.641386 408.144873,38.9474579 C400.340039,39.6106138 393.861614,42.5947703 388.709403,47.900017 C383.608204,53.2562757 381.338205,59.403128 381.899337,66.3407584 C382.460469,73.2273767 385.699681,78.8896224 391.617072,83.3276654 C397.534463,87.7657083 404.395472,89.6786291 412.200306,89.0664853 C414.699893,88.8624373 417.199443,88.3523251 419.699031,87.5361333 L419.316443,91.2089781 L438.063255,97.712974 L446.327155,0 L425.514368,1.68338718 Z M404.701581,62.6679136 C405.466761,58.2298707 407.022603,54.9651524 409.369155,52.8736609 C411.460646,50.9352054 413.807163,50.1955427 416.408774,50.6546506 C421.765033,51.6238783 423.652448,56.6739894 422.071076,65.8051352 C421.254885,70.2431781 419.699042,73.533402 417.403503,75.6759055 C415.312011,77.563349 412.965495,78.2775061 410.363884,77.8183982 C404.956613,76.8491705 403.069198,71.7990594 404.701581,62.6679136 Z" id="Path" fill="#000000"></path>
                <path d="M379.374256,62.208808 C379.323244,61.4436282 379.297738,60.8314935 379.297738,60.3723856 C379.654822,50.8841559 376.23707,44.3037082 369.04438,40.6308451 C365.473541,38.7944135 361.851744,37.9017171 358.178881,37.9527291 C357.005605,38.0037411 356.010887,38.1312692 355.194695,38.3353171 C352.338023,39.1004969 349.659934,41.0134178 347.160347,44.0741371 C346.548203,43.3599692 345.859552,42.7478346 345.094372,42.2377147 C344.380204,41.7275948 343.487507,41.2429882 342.416256,40.7838803 C340.375776,40.2737604 337.927238,40.0697155 335.070566,40.1717395 C329.408236,40.4267994 324.562169,42.161181 320.532222,45.3749362 L321.450434,37.4936235 L303.239245,34.8920252 L304.310491,89.5255909 L304.387009,89.4490733 C304.387009,89.7041332 309.105547,90.2907623 318.542765,91.2089781 C318.899849,78.2009212 321.373893,68.0751935 325.964972,60.8314912 C326.118008,60.5254193 326.347558,60.0663183 326.65363,59.4541745 C327.724882,57.6177429 329.178702,56.1129118 331.015133,54.9396361 C333.616745,53.3072525 335.580677,53.9448928 336.906989,56.8525761 C338.2333,59.6582354 338.258806,65.4480092 336.983506,74.2220711 C336.57541,76.8746944 336.065298,79.8078397 335.453154,83.021595 C334.943034,85.7762423 334.687978,87.1535453 334.687978,87.1535453 L349.532392,88.6838973 C349.889476,83.7357345 350.501611,78.6091066 351.368815,73.3038599 C353.05221,62.7443784 355.092659,56.5975261 357.490223,54.8631185 C359.98981,52.975675 362.055765,53.2052255 363.688148,55.5517769 C364.7594,57.0311246 365.448052,58.8165173 365.754123,60.9080088 C365.805135,61.6221767 365.856147,62.1577945 365.907159,62.5148784 C365.805135,75.7779952 364.478843,86.0822622 361.928243,93.4279884 L375.012753,97.712974 C378.02246,82.8684855 379.47628,71.5439941 379.374256,63.73916 L379.374256,62.208808 L379.374256,62.208808 Z" id="Path" fill="#000000"></path>
                <path d="M288.012243,86.0057813 C296.531245,86.2608413 300.790682,82.1799435 300.790682,73.7629655 C298.597166,67.0803951 294.184696,64.0452273 287.553137,64.6573712 C282.962058,65.371539 279.671834,67.8710889 277.682367,72.1560959 C276.305043,80.5730739 279.748301,85.1895895 288.012243,86.0057813 Z" id="Path" fill="#EB2F24"></path>
                <path d="M272.708723,68.2536984 C271.943543,65.754111 269.979611,63.2290554 266.816868,60.678456 C264.878412,59.0970844 261.613694,56.8780962 257.022615,54.0214249 C251.309273,50.5015978 248.274105,48.2826096 247.917021,47.3643938 C247.866009,46.1401061 248.070054,45.3239265 248.529162,44.9158306 C249.702437,43.8445789 252.227493,43.9210957 256.104404,45.1453834 L260.848495,46.9052882 L264.062234,48.1295698 L265.209998,46.2931474 L273.397381,33.591226 L271.331406,32.060874 C267.862591,29.4592626 262.149334,27.9034203 254.191464,27.3933005 C247.100798,26.9852046 241.56608,27.4187999 237.587145,28.6940996 C230.139395,31.0406511 225.828947,35.2490769 224.655671,41.3195035 C224.604659,41.7786114 224.553648,42.2377124 224.502636,42.6968203 C224.145552,46.3696834 225.140271,49.9149634 227.486822,53.3327665 C229.833373,56.7505697 233.200114,59.556187 237.587145,61.7497024 L240.035708,62.973984 C250.391142,67.9221468 255.645298,71.39091 255.798334,73.3803775 C255.900358,73.3803775 255.696313,73.5589168 255.186193,73.9160007 C254.472025,74.4261206 253.502812,74.8852216 252.278524,75.2933175 C249.166793,76.4665932 245.340951,76.3900763 240.800884,75.0637647 C236.311829,73.737453 233.302167,71.8245321 231.771808,69.3249447 L228.940656,64.7338888 L223.660942,80.1139262 L224.579153,81.3382078 C227.945944,85.8272627 234.449875,88.6073743 244.091141,89.6786261 C253.732407,90.7498778 261.333079,89.5511141 266.893385,86.0822989 C270.005117,84.1438434 272.045566,81.6442935 273.014793,78.5835742 C274.035033,75.471843 273.933011,72.0285854 272.708723,68.2536984 L272.708723,68.2536984 Z" id="Path" fill="#000000"></path>
                <path d="M220.141132,68.2536984 C219.375953,65.754111 217.412021,63.2290554 214.249277,60.678456 C212.310822,59.0970844 209.046104,56.8780962 204.455025,54.0214249 C198.741682,50.5015978 195.706514,48.2826096 195.34943,47.3643938 C195.298418,46.1401061 195.502463,45.3239265 195.961571,44.9158306 C197.134847,43.8445789 199.659902,43.9210957 203.536813,45.1453834 L208.280905,46.9052882 L211.494644,48.1295698 L212.642408,46.2931474 L220.829791,33.591226 L218.763816,32.060874 C215.295001,29.4592626 209.581744,27.9034203 201.623873,27.3933005 C194.533207,26.9852046 188.99849,27.4187999 185.019554,28.6940996 C177.571804,31.0406511 173.261356,35.2490769 172.08808,41.3195035 C172.037068,41.7786114 171.986057,42.2377124 171.935045,42.6968203 C171.577961,46.3696834 172.57268,49.9149634 174.919231,53.3327665 C177.265783,56.7505697 180.632524,59.556187 185.019554,61.7497024 L187.468118,62.973984 C197.823551,67.9221468 203.077707,71.39091 203.230743,73.3803775 C203.332767,73.3803775 203.128722,73.5589168 202.618602,73.9160007 C201.904434,74.4261206 200.935221,74.8852216 199.710934,75.2933175 C196.599202,76.4665932 192.773361,76.3900763 188.233294,75.0637647 C183.744239,73.737453 180.734577,71.8245321 179.204217,69.3249447 L176.373066,64.7338888 L171.093351,80.1139262 L172.011563,81.3382078 C175.378354,85.8272627 181.882285,88.6073743 191.52355,89.6786261 C201.164816,90.7498778 208.765488,89.5511141 214.325795,86.0822989 C217.437526,84.1438434 219.477975,81.6442935 220.447203,78.5835742 C221.467443,75.471843 221.36542,72.0285854 220.141132,68.2536984 L220.141132,68.2536984 Z" id="Path" fill="#000000"></path>
                <path d="M151.428329,27.0872301 C152.856664,36.0143279 152.219024,48.0274708 149.515389,63.1270192 C149.362353,63.4841031 149.183813,64.0707322 148.979765,64.886924 C148.163574,67.1824634 146.837282,69.1719011 145.00085,70.8552967 C142.399239,73.3038721 140.027217,73.0233104 137.884713,70.0136031 C135.793222,67.1059198 135.053559,59.9133374 135.665703,48.4356402 C135.818739,45.017837 136.124806,41.1409841 136.583914,36.8049651 C136.940998,33.234126 137.119537,31.4232276 137.119537,31.3722156 L116.536303,37.1110355 L116.536303,49.1242986 C116.536303,54.4805573 117.173944,60.1172974 118.449243,66.034688 C120.948831,77.9204811 125.361301,85.3681196 131.686788,88.3778269 C132.553992,88.7859228 133.676239,89.1174957 135.053562,89.3725557 C138.930473,89.6786276 143.087888,89.0154817 147.525931,87.3830981 C156.351005,84.1693429 162.115273,77.8184457 164.818908,68.3302159 C165.227004,66.9018803 165.48206,65.6521053 165.584084,64.5808536 C167.420516,55.7557797 168.160179,42.5693787 167.803095,25.0212549 L151.428329,27.0872301 Z" id="Path" fill="#000000"></path>
                <path d="M55.7048121,61.9792552 C59.7347591,74.4261802 67.1058808,81.8993243 77.8183982,84.3989117 C88.5309157,86.8984991 99.4473173,84.9090615 110.567931,78.430539 L109.190614,64.9634416 C101.38578,69.9626164 93.8106132,72.1816046 86.4648869,71.6204727 C79.1191607,71.0593408 75.0127573,67.437544 74.1455535,60.7549736 L111.562659,51.1902738 C110.185336,45.7319911 109.216123,42.4417672 108.654991,41.3195035 C102.329504,27.9033507 91.056024,22.5471723 74.8342119,25.2508077 C56.4698963,30.8621263 50.0934935,43.1048198 55.7048121,61.9792552 Z M92.8158476,46.369665 L73.0743071,51.8789322 C72.0540673,45.9615416 73.4823816,41.3450259 77.3592926,38.0292467 C84.347935,36.2438272 89.5000684,39.0239388 92.8158476,46.369665 Z" id="Path" fill="#000000"></path>
                <path d="M49.047781,68.2536984 C48.2826012,65.754111 46.3186691,63.2290554 43.1559259,60.678456 C41.2174703,59.0970844 37.9527521,56.8780962 33.3616732,54.0214249 C27.6483306,50.5015978 24.6131628,48.2826096 24.2560789,47.3643938 C24.2050669,46.1401061 24.4091118,45.3239265 24.8682197,44.9158306 C26.0414954,43.8445789 28.5665509,43.9210957 32.443462,45.1453834 L37.1875531,46.9052882 L40.4012923,48.1295698 L41.5490563,46.2931474 L49.7364394,33.591226 L47.6704642,32.060874 C44.201649,29.4592626 38.4883921,27.9034203 30.530522,27.3933005 C23.4398557,26.9852046 17.9051381,27.4187999 13.926203,28.6940996 C6.47845281,31.0406511 2.16800451,35.2490769 0.994728788,41.3195035 C0.9437168,41.7786114 0.892705577,42.2377124 0.84169359,42.6968203 C0.484609675,46.3696834 1.47932852,49.9149634 3.82587995,53.3327665 C6.17243139,56.7505697 9.53917208,59.556187 13.926203,61.7497024 L16.3747662,62.973984 C26.7301997,67.9221468 31.9843556,71.39091 32.1373916,73.3803775 C32.2394156,73.3803775 32.0353707,73.5589168 31.5252508,73.9160007 C30.811083,74.4261206 29.8418698,74.8852216 28.617582,75.2933175 C25.5058508,76.4665932 21.6800091,76.3900763 17.1399422,75.0637647 C12.6508873,73.737453 9.64122513,71.8245321 8.1108655,69.3249447 L5.27971433,64.7338888 L0,80.1139262 L0.918211189,81.3382078 C4.28500238,85.8272627 10.7889333,88.6073743 20.4301989,89.6786261 C30.0714646,90.7498778 37.6721368,89.5511141 43.2324435,86.0822989 C46.3441747,84.1438434 48.3846236,81.6442935 49.3538514,78.5835742 C50.3740911,75.471843 50.2720687,72.0285854 49.047781,68.2536984 L49.047781,68.2536984 Z" id="Path" fill="#000000"></path>
            </g>
        </g>
    </g>
</svg>